<?xml version="1.0" encoding="utf-8"?>
<!-- Generator: Adobe Illustrator 16.0.0, SVG Export Plug-In . SVG Version: 6.00 Build 0)  -->
<!DOCTYPE svg PUBLIC "-//W3C//DTD SVG 1.1//EN" "http://www.w3.org/Graphics/SVG/1.1/DTD/svg11.dtd">
<svg version="1.1" xmlns="http://www.w3.org/2000/svg" xmlns:xlink="http://www.w3.org/1999/xlink" x="0px" y="0px" width="1000px"
	 height="1000px" viewBox="0 0 1000 1000" enable-background="new 0 0 1000 1000" xml:space="preserve">
<g id="Layer_1" display="none">
	
		<image display="inline" overflow="visible" width="960" height="1280" xlink:href="photo_6305563447608938447_y.jpg"  transform="matrix(1.4828 0 0 1.6242 -125.5 -1229)">
	</image>
</g>
<g id="logo">
	<g>
		<polygon fill="#492E87" points="448.329,517.707 505.76,517.707 505.76,543.416 477.046,556.936 448.329,543.416 		"/>
		<g>
			<ellipse fill="#3A8B95" cx="476.711" cy="299.74" rx="75.821" ry="80.07"/>
			<polygon fill="#3A8B95" points="345.497,485.182 280.918,531.82 477.046,810.474 381.372,395.489 227.101,420.604 			"/>
			<polygon fill="#307A7F" points="391.722,440.385 477.046,556.936 562.363,440.385 477.046,810.474 			"/>
			<polygon fill="#3A8B95" points="608.594,485.182 673.172,531.82 477.046,810.474 572.715,395.489 726.986,420.604 			"/>
			<polyline fill="#492E87" points="462.654,550.16 456.044,719.377 477.046,810.474 497.377,719.547 491.438,550.16 			"/>
		</g>
	</g>
</g>
<g id="Icon">
</g>
</svg>
