<?xml version="1.0" encoding="utf-8"?>
<!-- Generator: Adobe Illustrator 16.0.0, SVG Export Plug-In . SVG Version: 6.00 Build 0)  -->
<!DOCTYPE svg PUBLIC "-//W3C//DTD SVG 1.1//EN" "http://www.w3.org/Graphics/SVG/1.1/DTD/svg11.dtd">
<svg version="1.1" id="Layer_1" xmlns="http://www.w3.org/2000/svg" xmlns:xlink="http://www.w3.org/1999/xlink" x="0px" y="0px"
	 width="693.104px" height="224.988px" viewBox="152.153 382.597 693.104 224.988"
	 enable-background="new 152.153 382.597 693.104 224.988" xml:space="preserve">
<g id="Layer_1_1_" display="none">
	
		<image display="inline" overflow="visible" enable-background="new    " width="960" height="1280" xlink:href="photo_6305563447608938447_y.jpg"  transform="matrix(1.4828 0 0 1.6242 -125.5 -1228.999)">
	</image>
</g>
<g>
	<g>
		<path fill="#010202" stroke="#000000" stroke-miterlimit="10" d="M492.777,505.09h56.933l6.691,20.989l-5.205,1.716
			c-1.561-4.194-3.404-7.482-5.534-9.866c-2.13-2.382-4.479-4.03-7.046-4.946c-2.568-0.914-6.59-1.372-12.066-1.372h-14.604
			l-7.164,30.481h8.417c3.476,0,6.09-0.267,7.847-0.8c1.755-0.533,3.239-1.392,4.452-2.574c1.213-1.181,2.181-2.688,2.905-4.519
			c0.29-0.725,0.797-2.61,1.521-5.661h5.547l-7.435,32.483h-5.547l0.457-1.829c0.343-1.563,0.515-2.86,0.515-3.891
			c0-1.716-0.384-3.146-1.151-4.289c-0.767-1.144-1.813-1.98-3.143-2.516c-1.329-0.534-3.658-0.802-6.988-0.802h-8.504
			l-5.628,24.558c-0.382,1.479-0.572,2.658-0.572,3.538c0,1.372,0.516,2.428,1.546,3.167c1.028,0.738,2.896,1.106,5.604,1.106h2.344
			l-1.028,4.805h-31.31l1.088-4.805h2.401c2.591,0,4.403-0.229,5.433-0.687c1.029-0.457,1.917-1.237,2.66-2.345
			c0.742-1.104,1.4-2.917,1.973-5.434l12.088-53.188c0.42-1.88,0.63-3.242,0.63-4.088c0-1.42-0.61-2.59-1.831-3.514
			c-0.838-0.612-2.344-0.921-4.519-0.921h-2.917L492.777,505.09z"/>
		<path fill="#010202" stroke="#000000" stroke-miterlimit="10" d="M575.491,528.31l-10.188,44.563
			c-0.457,1.639-0.687,2.93-0.687,3.871c0,1.116,0.274,1.997,0.827,2.642c0.55,0.646,1.235,0.968,2.057,0.968
			c0.967,0,1.89-0.381,2.771-1.144c1.377-1.145,3.12-3.222,5.229-6.233l3.66,3.202c-2.031,3.052-4.371,5.425-7.02,7.12
			c-2.647,1.696-5.154,2.545-7.52,2.545c-2.565,0-4.718-0.904-6.457-2.717c-1.739-1.811-2.609-3.917-2.609-6.318
			c0-1.679,0.323-3.794,0.974-6.349l7.462-32.828h-12.968l1.13-4.804c3.177-0.15,6.095-0.546,8.752-1.186
			c2.655-0.641,5.886-1.752,9.69-3.332L575.491,528.31L575.491,528.31z M574.416,500.972c1.639,0,3.002,0.543,4.09,1.631
			c1.086,1.087,1.629,2.508,1.629,4.262c0,1.981-0.695,3.688-2.087,5.118c-1.393,1.43-3.003,2.145-4.833,2.145
			c-1.679,0-3.106-0.58-4.289-1.744c-1.183-1.163-1.772-2.563-1.772-4.204c0-1.943,0.725-3.632,2.174-5.061
			C570.773,501.688,572.471,500.972,574.416,500.972z"/>
		<path fill="#010202" stroke="#000000" stroke-miterlimit="10" d="M609.816,528.31l-4.096,17.981
			c1.824-3.13,3.592-5.611,5.305-7.445c3.235-3.549,6.549-6.192,9.936-7.931s6.661-2.605,9.825-2.605c2.492,0,4.67,0.508,6.53,1.521
			c1.859,1.014,3.35,2.454,4.467,4.32c1.115,1.866,1.674,3.754,1.674,5.659c0,1.63-0.352,3.968-1.055,7.013l-5.619,24.348
			c-0.615,2.66-0.922,4.438-0.922,5.331c0,1.033,0.355,1.876,1.067,2.529c0.714,0.652,1.591,0.979,2.632,0.979
			c2.697,0,6.164-2.535,10.404-7.606l3.604,3.375c-3.359,3.89-6.289,6.539-8.79,7.948c-2.5,1.411-5.104,2.116-7.814,2.116
			c-2.06,0-3.845-0.399-5.353-1.2c-1.509-0.802-2.701-1.953-3.579-3.461c-0.877-1.505-1.315-3.098-1.315-4.773
			c0-1.487,0.269-3.413,0.807-5.78l5.758-25.329c0.494-2.175,0.742-3.854,0.742-5.035c0-1.678-0.531-3.003-1.595-3.975
			c-1.062-0.973-2.467-1.459-4.216-1.459c-2.012,0-4.125,0.553-6.342,1.66c-2.216,1.104-4.571,2.936-7.066,5.492
			c-2.494,2.555-4.775,5.721-6.844,9.496c-2.065,3.776-3.956,8.277-5.67,13.504c-0.849,2.399-1.794,6.002-2.835,10.803l-1.968,9.086
			h-9.44l10.71-47.124h-10.71l1.151-4.689c3.686-0.533,6.563-1.105,8.639-1.716c2.073-0.608,4.701-1.621,7.89-3.031L609.816,528.31
			L609.816,528.31z"/>
		<path fill="#010202" stroke="#000000" stroke-miterlimit="10" d="M727.265,500.972l-16.229,70.442
			c-0.672,2.799-1.008,4.619-1.008,5.463c0,0.95,0.346,1.748,1.037,2.393c0.69,0.646,1.557,0.97,2.592,0.97
			c0.884,0,1.737-0.162,2.563-0.486c0.826-0.323,1.795-0.924,2.91-1.801c0.46-0.42,2.13-2.079,5.011-4.977l3.546,3.146
			c-2.899,3.165-5.064,5.271-6.497,6.32c-1.431,1.049-3.053,1.878-4.863,2.486c-1.813,0.609-3.616,0.915-5.408,0.915
			c-1.984,0-3.721-0.399-5.209-1.2c-1.488-0.802-2.662-1.944-3.521-3.432c-0.856-1.487-1.286-3.05-1.286-4.69
			c0-1.336,0.42-3.701,1.26-7.1c-2.896,4.312-5.688,7.639-8.375,9.984c-2.687,2.347-5.45,4.071-8.289,5.179
			s-5.765,1.659-8.775,1.659c-3.695,0-6.764-0.753-9.202-2.259c-2.439-1.506-4.449-3.842-6.03-7.006
			c-1.582-3.165-2.372-6.807-2.372-10.925c0-6.595,1.636-12.887,4.908-18.873c3.273-5.984,7.523-10.627,12.75-13.925
			c5.226-3.299,10.688-4.947,16.395-4.947c3.331,0,6.384,0.533,9.16,1.6c2.774,1.064,5.368,2.74,7.781,5.023l5.764-24.353h-12.981
			l1.205-4.805c3.004-0.267,6.252-0.866,9.743-1.802c3.491-0.935,6.315-1.936,8.473-3.003h4.95V500.972z M708.972,540.204
			c-1.955-1.867-4.274-3.336-6.959-4.402c-2.683-1.067-5.251-1.603-7.704-1.603c-3.834,0-7.601,1.326-11.3,3.976
			c-3.698,2.65-6.861,6.748-9.487,12.296c-2.626,5.549-3.938,11.314-3.938,17.301c0,3.813,0.919,6.814,2.76,9.008
			c1.841,2.192,4.103,3.288,6.785,3.288c3.221,0,6.479-1.145,9.776-3.433c4.6-3.164,8.48-7.442,11.645-12.839
			C703.71,558.4,706.518,550.537,708.972,540.204z"/>
		<path fill="#010202" stroke="#000000" stroke-miterlimit="10" d="M782.99,569.771l3.203,3.66c-4.805,4.252-9.8,7.449-14.983,9.595
			c-5.187,2.145-10.257,3.217-15.213,3.217c-6.673,0-12.049-2.049-16.127-6.148c-4.081-4.098-6.12-9.541-6.12-16.327
			c0-6.063,1.688-11.828,5.061-17.3c3.375-5.471,8.084-9.866,14.127-13.183c6.043-3.317,12.516-4.977,19.416-4.977
			c5.49,0,9.779,1.258,12.867,3.774c3.089,2.517,4.633,5.49,4.633,8.922c0,2.021-0.677,4.146-2.028,6.376
			c-1.354,2.23-3.633,4.299-6.835,6.205c-3.203,1.907-7.835,3.489-13.896,4.747c-6.063,1.258-13.518,2.116-22.361,2.573
			c-0.191,1.486-0.286,2.611-0.286,3.375c0,3.012,0.638,5.699,1.915,8.063c1.277,2.365,3.089,4.242,5.434,5.634
			c2.346,1.394,4.794,2.087,7.35,2.087c3.24,0,7.024-0.876,11.353-2.63C774.822,575.683,778.987,573.127,782.99,569.771z
			 M745.417,556.39c8.654-0.955,14.927-1.892,18.815-2.81c6.252-1.49,10.521-3.297,12.812-5.418
			c2.287-2.121,3.431-4.443,3.431-6.967c0-2.141-0.849-3.937-2.545-5.39c-1.696-1.452-4.107-2.179-7.233-2.179
			c-3.279,0-6.749,0.975-10.409,2.925c-3.66,1.949-6.77,4.605-9.322,7.97C748.409,547.885,746.561,551.841,745.417,556.39z"/>
		<path fill="#010202" stroke="#000000" stroke-miterlimit="10" d="M820.912,528.31l-4.222,17.947
			c2.204-4.116,4.609-7.524,7.216-10.23c2.604-2.704,5.275-4.765,8.016-6.173c1.977-1.028,3.975-1.544,5.989-1.544
			s3.66,0.579,4.935,1.736c1.275,1.157,1.911,2.57,1.911,4.239c0,1.441-0.523,2.723-1.573,3.841
			c-1.05,1.119-2.164,1.679-3.346,1.679c-0.801,0-1.924-0.257-3.373-0.771c-1.486-0.554-2.669-0.829-3.546-0.829
			c-3.202,0-6.577,2.363-10.122,7.088c-4.841,6.402-8.787,16.156-11.837,29.265l-2.434,10.314h-9.323l10.696-47.067h-10.696
			l1.147-4.688c3.561-0.458,6.547-1.038,8.959-1.744c2.412-0.705,4.882-1.725,7.408-3.06h4.194V528.31z"/>
	</g>
	<polygon fill="#492E87" points="398.804,497.333 418.323,497.333 418.323,506.071 408.564,510.666 398.804,506.071 	"/>
	<g>
		<ellipse fill="#3A8B95" cx="408.45" cy="423.25" rx="25.77" ry="27.214"/>
		<polygon fill="#307A7F" points="376,469 408.001,509.26 440,469 408.001,596.839 		"/>
		<polygon fill="#3A8B95" points="363.854,486.278 341.904,502.13 408.564,596.839 376.046,455.793 323.612,464.33 		"/>
		<polygon fill="#3A8B95" points="453.274,486.278 475.224,502.13 408.564,596.839 441.08,455.793 493.514,464.33 		"/>
		<polyline fill="#492E87" points="403.672,508.363 401.426,565.877 408.564,596.839 415.474,565.935 413.455,508.363 		"/>
	</g>
	<g>
		<path fill="#492E87" d="M275.601,504.448c24.641,5.854,36.107,18.786,36.107,30.739c0,48.551-85.145,56.356-120.276,56.356
			c-9.515,0-39.279,0-39.279-14.15c0-5.122,8.539-18.054,12.442-21.713c2.928-2.439,17.322-7.075,20.982-7.075
			c1.22,0,1.952,0.244,1.952,1.709c0,2.438-2.44,3.658-4.147,4.635c-1.464,0.976-2.684,2.194-4.148,3.66v0.486
			c87.097,3.172,111.006-21.957,111.006-25.859c0-12.442-67.579-22.201-79.29-24.153c-12.199-1.951-24.885-5.854-24.885-20.493
			c0-8.051,3.904-25.86,7.807-32.447c7.563-12.442,51.721-35.619,105.15-35.619c10.247,0,20.494,1.22,30.74,3.415
			c5.611,1.221,6.344,3.172,6.344,8.052c0,18.054-6.1,22.202-20.493,27.813c-10.491,3.903-12.442,5.123-21.958,11.954
			c-1.708,0.977-4.147,2.44-6.1,2.44c-2.439,0-3.903-1.221-3.903-3.659c0-0.489,4.636-8.051,17.81-17.079l-0.488-0.487
			c-62.944,2.195-90.024,24.884-90.269,30.496C210.705,486.882,207.533,488.59,275.601,504.448z"/>
	</g>
</g>
<g id="Icon">
</g>
</svg>
